# xmcd CD database file
#
# Track frame offsets:
#	150
#	14202
#	27905
#	41380
#	53945
#	68347
#	81692
#	94215
#	101385
#	103612
#	108400
#	113662
#	118542
#	119987
#	122590
#	123850
#	127972
#	130032
#	130772
#	137637
#	143542
#	208002
#	249867
#
# Disc length: 4593 seconds
#
# Revision: 2
# Processed by: cddbd v1.5PL3 Copyright (c) Steve Scherf et al.
# Submitted via: CDex 1.51
#
DISCID=4111ef17
DTITLE=Charlie Christian - The Genius Of The Electric Guitar - CD4
DYEAR=2002
DGENRE=Jazz
TTITLE0=All Star Strut [Mergentroid]
TTITLE1=Honeysuckle Rose [A. Razaf-T. ''Fats'' Waller]
TTITLE2=Li'l Boy Love [F. Loesser-F. Hollander] [third take]
TTITLE3=Solo Flight [C. Christian-J. Mundy-B. Goodman] [first take]
TTITLE4=All Star Strut [Mergentroid] [alternate take]
TTITLE5=Li'l Boy Love [F. Loesser-F. Hollander] [alternate take] [second take]
TTITLE6=Solo Flight [C. Christian-J. Mundy-B. Goodman] [alternate take]
TTITLE7=Untitled Tune (breakdown) [Unknown] [alternate take]
TTITLE8=Poor Butterfly (false start) [J. Golden-R. Hubbell] [alternate take]
TTITLE9=I Surrender, Dear (breakdown) [G. Clifford-H. Barris] [alternate take]
TTITLE10=I Surrender, Dear (breakdown) [G. Clifford-H. Barris] [alternate take]
TTITLE11=Six Appeal (My Daddy Rocks Me) (breakdown) [B. Goodman] [alternate take]
TTITLE12=Six Appeal (My Daddy Rocks Me) (breakdown) [B. Goodman] [alternate take]
TTITLE13=These Foolish Things (false start) [H. Marvell-J. Strachey] [alternate take]
TTITLE14=Tune Up and Blues [false start] [Improvisation] [alternate take]
TTITLE15=Wholly Cats (breakdown) [B. Goodman] [alternate take]
TTITLE16=Breakfast Feud (false start) [B. Goodman] [alternate take]
TTITLE17=Breakfast Feud (false start) [B. Goodman] [alternate take]
TTITLE18=Gilly (breakdown) [B. Goodman] [alternate take]
TTITLE19=All Star Strut (breakdown) [Mergentroid] [alternate take]
TTITLE20=Benny's Bugle (rehearsal sequence - part one) [B. Goodman] [alternate take]
TTITLE21=Benny's Bugle (rehearsal sequence - part two) [B. Goodman] [alternate take]
TTITLE22=March 13, 1941 - Jam Session [Unknown-B. Goodman-C. Gaskill-J. McHugh-A. Hickman-~] [alternate take]
EXTD=YEAR: 2002
EXTT0=
EXTT1=
EXTT2=
EXTT3=
EXTT4=
EXTT5=
EXTT6=
EXTT7=
EXTT8=
EXTT9=
EXTT10=
EXTT11=
EXTT12=
EXTT13=
EXTT14=
EXTT15=
EXTT16=
EXTT17=
EXTT18=
EXTT19=
EXTT20=
EXTT21=
EXTT22=
PLAYORDER=
